<?xml version="1.0" encoding="UTF-8"?>
<svg version="1.1" viewBox="0 0 1024 1024" width="2560" height="2560" xmlns="http://www.w3.org/2000/svg">
<path transform="translate(730,229)" d="m0 0 10 1 10 5 6 7 4 11v13l-4 13-6 9 1 6 10 24v8l-5 6-9 6-7 1h-22l-5-3-6 4-15 1h-15l-16 1h-11l-7-3v2l5 2 6 8 9 29 5-19 4-5 4-2 25-1h40l8 4 6 7 3 10h2l1-8 5-21 4-6 5-3 33-2 30-1 9 3 5 4 2 5h2l1-7 4-11 6-5 3-1 28-2 25-1h14l8 3 5 5 4 6 1 4v10l-8 99 9 1 6 5v2l11-7h29l11 4 5 6 3 7 1 7-1 34-2 31-3 10-15 28-6 7-6 3-9 1-139-9-7-3-4-5-1-6 2-23-12 35-4 5-7 4-4 1h-17l-44-2-6-4-10-18-5-10-2 6-3 12-6 8-9 4h-30l-42-1-8-3-4-6-6-18-3 9-4 5-10 4h-71l-5-4-4-11-5-18v-2h-20l-3 16-4 10-9 8-8 2h-64l-1 3-7 4-4 1-26 1h-37l-5-3-3-4-14-38h-8l-6 25-5 9-7 7-8 4-10 2-30 2h-19l-9-3-4-6-6-18v-3l-7 4-12 8-20 8-19 4-36 3-58 4h-15l-6-3-6-9-14-27 1-9 17-83 22-103 6-27 4-6 4-2h14l97 7 12 3 14 7 10 8 9 12 4 10 8 28 1 1 10-43 3-6 5-4 7-1h5l-11-8-2-5 1-7 13-30 15-35 8-18 6-4h15l15 1 7 6 4 6 4-8 5-3h26l5 3 4 5 4 8v10l-4 34-1 3h9l1-13 5-39 3-6 3-3 3-1h15l12 1 6 5 4 11-1 14-4 32h14l5 3 2 4h2l-3-7-4-8-2-8 1-7 6-5 13-4 13-16 5-3 8 1 7 8 3 5 15 2 3-10 7-9 9-6 11-3h17l10 3 5 1 4-3 23-1h39l5 2 5-3h29l5 3 2 4v8h2l1-4 6-9 5-3 8-1zm-107 46m-46 3-4 6-2 4 4 10h1l2-11v-9zm-67 14-1 2h2zm-2 2m-30 28-19 13 1 2 49-1-6-10-15-2zm93 1-7 11-10 7-5 2 2 4 6 7 2-4 4-5 5-2 7-1-4-8 1-11zm-280 14-1 2h6l-1-2zm63 5 3 2 12 4 15 8 12 11 2 3 2 11 8 4 4 9 3 17 2-2 14-63v-2l-3-1-52-1zm41 155-3 3 1 6h2l2-9z" fill="#1B1B46"/>
<path transform="translate(489,572)" d="m0 0h59l25 2 25 4 22 6 16 8 10 8 7 9 6 15 3 13v21l-4 17-7 16-8 14-10 13-11 12-17 17-14 11-5 4 64-2h10l5 3 2 7 16 114-1 6-3 3-2 1-173 2-101 1h-82l-4-5 1-11 21-132 3-7 16-8 33-16 25-13 19-12 4-3h-8l-25 5-36 10-7 2-6-1-3-4 1-14 13-97 2-5 5-3 38-5 42-4z" fill="#985FE4"/>
<path transform="translate(824,342)" d="m0 0h15l4 3v15l-9 67-5 35-7 48-3 20-3 5-2 1h-30l-28-1-6-9-13-25-12-22-3-6-2 9-8 46-4 4h-40l-33-1-6-16-15-42-17-47-12-33-8-23-6-17v-2l5-1 61-2 5 3 6 18 14 50 2 4 10-39 6-21 12-1 46-1 5 3 5 11 6 16 7 21 3 8h1l9-50 5-25 5-1z" fill="#87DC7F"/>
<path transform="translate(489,572)" d="m0 0h59l25 2 25 4 22 6 16 8 10 8 7 9 6 15 3 13v21l-4 17-7 16-8 14-10 13-11 12-17 17-14 11-5 4 64-2h10l5 3 2 7 16 114-1 6-3 3-2 1-173 2-101 1h-82l-4-5 1-11 21-132 3-7 16-8 33-16 25-13 19-12 4-3h-8l-25 5-36 10-7 2-6-1-3-4 1-14 13-97 2-5 5-3 38-5 42-4zm11 7-46 2-24 2-43 6-5 2-7 59-2 18 15-3 21-4 15-2 14-1h10l12 2 7 3 2 4-1 6-8 11-11 9-13 10-19 12-28 17-17 9-11 6-6 34-4 21-9 51v4h302l16-1-1-19-5-65-2-4-40 1h-73l17-13 14-12 13-12 17-17 9-11 11-15 9-16 6-16 1-4v-23l-3-10-6-11-7-7-13-8-12-5-14-4-24-4-12-1-25-1z" fill="#1B1A46"/>
<path transform="translate(247,346)" d="m0 0 29 1 57 2 16 1 16 5 14 8 8 7-5 9-16 25-4 6 15-8 20-11 3-1 3 14v12l-4 14-7 12-8 10-8 7-11 8 2 6 12 26 5 10 6 14-1 6-3 2-17 1-43 1-2-2-7-20-10-26h-28l-3 16-5 21-6 8-10 4-27 2h-25v-7l4-15 5-24 2-6 2-10 7-29 18-78 5-20z" fill="#87DC7F"/>
<path transform="translate(58,324)" d="m0 0h12l51 4 36 2 16 3 11 6 8 6 7 10 3 8 1 5v11l-5 13-4 8-9 10-6 5-1 2 6 2 10 7 6 8 3 10v15l-5 16-8 16-9 10-10 9-13 8-10 5-19 6-14 2-55 4h-4v-3l6-2 9-10h2l1-3h2l2-4 10-9 12-13-16 1-1-2 1-4 2-1 9-1 10-6 5-8 1-3v-12l-3-6-5-4-3-1h-12l-5 22-1 2h-2l-1-4-12-3-4-4h-7v2l-6 2-19 19-6 24-2 10-4 21 1 2-6 1 2-13 6-29 3-17 8-38 3-14 6-26 4-21 9-42z" fill="#87DC7F"/>
<path transform="translate(444,345)" d="m0 0h89l9 5 6 9 6 15 7 20 4 11 7 18 7 20 8 26 9 27 6 16v6l-2 3-3 1-66 1-3-7-7-26-2-4h-41l-1 10-4 20-5 6-4 1h-60l1-7 3-15 4-18 6-26 6-28 8-36 10-43z" fill="#87DC7F"/>
<path transform="translate(500,579)" d="m0 0h20l25 1 20 2 20 4 18 6 14 8 10 9 8 16 1 5v23l-5 15-8 16-5-1-1-1-21-2-3 1h-7l-4-1h-12l-7-1-3-2 2-4 6-8-1-2-20-1-8 7-5 1-53-3-12-3-9-4-12-2h-10l-21 2-25 4-17 4h-2l4-36 5-41 5-2 43-6 24-2z" fill="#D574F6"/>
<path transform="translate(924,327)" d="m0 0h12l5 3 2 4-1 19-5 59-1 10-1 22-1 10h17l-2 5-17 25 4-2 11-7 10-7 20-13h25l5 2 2 5v30l-2 39-3 5-2 1h-13l-73-5-52-3-10-1v-9l18-188 1-1 25-2z" fill="#87DC7F"/>
<path transform="translate(529,685)" d="m0 0h11l4 6-4 5h-2l-2 4-155 155 163 1v1h-202l2-16 10-57 4-20 3-17 17-9 18-10 26-16 15-10 7-4 24 2h8l4 1 2-1h17l3 3 4-2 14-13 5-2z" fill="#8C41DD"/>
<path transform="translate(652,768)" d="m0 0 2 4 6 76v8l-16 1h-89l-87-1 4-6 10-10h2l2-4 20-20h2l2-4 4-4h2l2-4h2l2-4h2l2-4 4-4h2l2-4 16-16 6-2z" fill="#985FE4"/>
<path transform="translate(88,443)" d="m0 0h12l7 4 4 5 1 3v12l-5 10-8 6-4 2-11 1v5l17-1-6 7-7 8-7 7-7 6-7 8-6 6h-5v3l4-1 55-4 18-3 17-6 12-6 14-10 11-11 8-14 5-14 2-7 1-13 2 3 7 23 3 12-5 19-2 11-4-2-1 6-4 6-11 12-15 11-17 8-15 4-13 2-98 7-5-8-12-21 1-4 1 2 3-2 4-21 4-18 4-16 21-21 4-2 1-1h7l4 4 12 3 1 5h2l4-20z" fill="#137349"/>
<path transform="translate(928,445)" d="m0 0h6v9h17l-2 5-17 25 4-2 11-7 10-7 20-13h25l5 2 2 5v30l-2 39-3 5-2 1h-13l-73-5-52-3-10-1v-9l2-12h1l1 8z" fill="#87DC80"/>
<path transform="translate(547,661)" d="m0 0 20 1 3 2-7 9-3 4 10 2h12l4 1h7l7-1 17 2 5 3-2 5-12 16-12 14-11 11h-12l-29-2-7-1-7 1-2-1h-13l-3-2 2-4 23-23 1-2h2l2-4v-3l-2-3h-11l-7 2-8 7-10 9-4-2-1-1h-17l-3 1-7-1-20-1-8-1 1-3 10-8 7-6 6-9 1-6-1-4 15 3 54 3 6-4z" fill="#B65FE0"/>
<path transform="translate(544,856)" d="m0 0h116v21h-318v-20z" fill="#4C2798"/>
<path transform="translate(871,335)" d="m0 0h1l-1 17-14 146-3 30 30 1 77 5 28 2h15l-2 5-13 24-4 2-21-1-121-8v-9l9-93 8-84 2-10 5-15 1-7h3z" fill="#147349"/>
<path transform="translate(507,485)" d="m0 0h13l4 11 6 23 1 3 66-1 4-1v10l-2 18-4 4-65 1-5-16-5-18v-2h-41l-1 12-4 17-3 5-4 2h-60l-2-12-2-20 1 2 60-1 5-2 3-4 5-24 1-6z" fill="#137349"/>
<path transform="translate(174,336)" d="m0 0 2 3v-2h5l11 8 7 10 3 8 1 5v11l-5 13-4 8h-6v4h-4v4h-4v4h-4l-1 5-8 8-3-1v-2l-6 2h-43l-15-1-6 1-4-2 2-4 6-6 3 1v1h12l6-4v-1l-8-1-2 1h-12l1-10 5-23h11l5 3 3 5v4h2l2-4z" fill="#98DC45"/>
<path transform="translate(304,484)" d="m0 0 4 1 12 31 5 15 3 1 41-1 17-1 4-3 2 9 2 15v6l-4 4-18 1h-41l-13-34-4-11h-27l-7 31-5 10-8 5-16 2-15 1h-24l-4-10-6-19 1-4v3l43-2 13-2 8-5 4-8 7-32 1-2z" fill="#137349"/>
<path transform="translate(556,770)" d="m0 0h56v2l-5 2-6 7-10 10-10 9-16 16-3 4h-2l-1 3-8 7-11 11-2 3h-2v2l-8 7-3 3h-57l4-6 10-10h2l2-4 20-20h2l2-4 4-4h2l2-4h2l2-4h2l2-4 4-4h2l2-4 16-16z" fill="#B987EB"/>
<path transform="translate(88,443)" d="m0 0h12l7 4 4 5 1 3v12l-5 10-8 6-4 2-11 1v5l17-1-6 7-7 8-7 7-7 6-7 8-6 6h-5v2l-3 1-25 2h-8l-2-2 4-21 4-18 4-16 21-21 4-2 1-1h7l4 4 12 3 1 5h2l4-20z" fill="#4EC572"/>
<path transform="translate(571,353)" d="m0 0 2 4 12 32 10 29 13 35 10 29 15 41 2 8h73l4-3-1 7-5 22-5 5h-35l-35-1-11-30-20-56-9-24-10-29-12-33v-20l1-13z" fill="#147349"/>
<path transform="translate(715,236)" d="m0 0h23l6 3 5 6 2 6v11l-5 13-8 8 10 24 4 10-1 3-7 1h-16l-9-20-2-4v-3h-2l-1 14-2 13-1 1-23 1 1-17 2-14 6-48 2-7z" fill="#FAFAFC"/>
<path transform="translate(286,236)" d="m0 0 24 1 2 2 3 30 3 41v13h-11l-12-1-2-10v-3l-9-1-2 9-2 4h-24l-6-2 10-24 15-35 10-23z" fill="#D8D7E4"/>
<path transform="translate(652,238)" d="m0 0h21l4 40 3 36v8l-1 1-22 1-1-1v-13h-10l-1 6-3 8-14 1h-10l1-5 12-36 14-41 2-4z" fill="#D9D8E4"/>
<path transform="translate(307,354)" d="m0 0h17l16 1-3 5-36 36h-5v2h9l9 4 7 8 1 4v9l-3 8-6 7-7 5-8 2-13-1 2-14 5-25-5 5-3 1-1 3-7 5v-2l-12 1-8-1-8 2h-5l6-7 9-10 46-46z" fill="#98DC45"/>
<path transform="translate(536,240)" d="m0 0h21l8 4 4 5 2 6v8l-2 5h-22l-1-4v-8l-3 2-1 3v7l2 4 4 2 13 12 5 7v14l-4 9-8 8-8 3h-20l-8-4-5-6-1-3v-10l1-4h23l1 9h3l2-7-2-5-10-8-9-8-4-8v-13l3-8 7-8z" fill="#FAF8FC"/>
<path transform="translate(58,324)" d="m0 0h12l51 4 4 4-6 8h-2l-2 4-7 6-5 5-14 15-7 6-5 6h-2v2l-5 5-4 2-1 3-3 3h-2l-2 4-7 6-5 6h-3l-1 3-1-4v-7l5-25 9-42z" fill="#98DC45"/>
<path transform="translate(721,472)" d="m0 0 3 3 13 25 12 22 7 12 28 1h30l3-1-2 9-7 20-5 3h-19l-32-1-5-1-13-24-16-30-2-4 1-11 3-20z" fill="#137349"/>
<path transform="translate(928,445)" d="m0 0h6v9h17l-2 5-18 27 2 1-40 40-1 2h-28l-10-1v-9l2-12h1l1 8z" fill="#7CE3A8"/>
<path transform="translate(603,117)" d="m0 0h7l6 5 1 2v55l-3 8-9 10-9 4h-15l-8-4-7-6-4-8-2-8 1-9 4-9 6-7 7-4 4-1h13v-19l3-6zm-15 43-5 5-1 4v8l4 8h5l3-3 1-3v-12l-3-5z" fill="#E45E03"/>
<path transform="translate(336,238)" d="m0 0h14l9 1v9l-2 14-4 34-1 4 25 1 2 1-2 18-1 4h-49l-2-1 1-16 8-62z" fill="#D8D7E4"/>
<path transform="translate(393,240)" d="m0 0h22l1 1v9l-4 34-2 16-1 2h26l1 1-1 15-2 7h-50l-1-4 9-73 1-7z" fill="#D8D7E4"/>
<path transform="translate(529,685)" d="m0 0h11l4 6-4 5h-2l-2 4-8 8-1-2h-23l-12 11-7 7-8 7-5 5-6-2-3-2-13-2-3-2-24-1-6 1-7-1-3-4v-2l20-12 16-11 25 2h8l4 1 2-1h17l3 3 4-2 14-13 5-2z" fill="#A14BDE"/>
<path transform="translate(616,239)" d="m0 0h18l-1 14-5 2h-12v7l-7 46-2 14-2 3h-22l-1-5 5-31 2-11 2-20-15 1-1-1v-10l2-8z" fill="#FAFAFC"/>
<path transform="translate(407,144)" d="m0 0 7 1 5 4 1 2v8l-8 15 1 4 10 15-1 5-1 1h-19l-7-9-3-5-1-1v15h-22v-47l3-5 3-2h9l5 4 2 5v11l9-16 4-4z" fill="#E55D01"/>
<path transform="translate(757,145)" d="m0 0h15l10 5 7 8 4 10v31h-22l-1-30-3-5-3-1-4 3-1 3-1 30h-22v-30l3-9 6-8 9-6z" fill="#E55D01"/>
<path transform="translate(640,145)" d="m0 0h15l10 5 7 8 3 10v7l-1 1h-32l2 8h6l4-5h20l-2 9-8 9-9 4h-15l-10-5-7-8-3-7-1-11 3-10 6-8 9-6zm6 15-3 3-1 5h11l-1-5-3-3z" fill="#E45F03"/>
<path transform="translate(252,144)" d="m0 0 12 2 9 6 6 8 2 5v34h-21l-1-29-3-6-3-1-5 5-1 30-1 1h-21v-32l4-10 8-8 9-4z" fill="#E45E02"/>
<path transform="translate(440,145)" d="m0 0h15l10 5 7 8 3 9v9h-34l5 8 6-1 2-4h20l-1 7-6 8-5 4-7 3h-14l-9-4-6-5-5-8-2-8 1-11 4-8 5-6 8-5zm6 15-4 5v3h11l1-2-3-5z" fill="#E45E02"/>
<path transform="translate(698,145)" d="m0 0h15l10 5 8 9 3 9v10l-4 10-7 8-10 5h-15l-10-5-7-8-4-11v-8l4-11 7-8zm7 15-5 5-1 3v10l3 6 1 1h5l4-6v-12l-4-6z" fill="#E45E02"/>
<path transform="translate(523,145)" d="m0 0h14l10 5 7 7 4 9v14l-5 10-7 7-9 4h-14l-9-4-5-4-6-10-1-3v-14l6-12 9-7zm6 15-4 4-2 6 1 10 3 5h5l4-5 1-9-3-9z" fill="#E45D02"/>
<path transform="translate(331,145)" d="m0 0h14l10 5 7 7 4 10v4h-21l-4-8-4-2-4 4-1 4v8l3 7h5l3-5 2-4h21l-1 7-4 8-7 7-9 4h-15l-8-4-6-5-5-8-2-8 1-11 4-8 5-6 9-5z" fill="#E36106"/>
<path transform="translate(477,252)" d="m0 0 4 2 6 10v2h14l7 2-2 6-11 11 2 10 3 8v5l-8-1-13-3-5 1-11 7-10 7-11 8-1-2 12-20 8-13h-1-3l-7-10-3-7 9-4 8-2 10-14z" fill="#FAF9FC"/>
<path transform="translate(318,518)" d="m0 0h2l5 13 3 1 41-1 17-1 4-3 2 9 2 15v6l-4 4-18 1h-41l-13-34-2-5v-3z" fill="#137349"/>
<path transform="translate(438,657)" d="m0 0h10l12 2 8 4 2 4-1 6-6 9-1-2-10-2h-16l-16 1-22 4-17 4-8 1v-20l15-4 21-4 15-2z" fill="#4D2798"/>
<path transform="translate(286,236)" d="m0 0 24 1 2 2 3 30v16l-3 1h-19l-1-3-1 5h-3v-3h-20v3l-4 1 1-6 16-37z" fill="#FBFAFC"/>
<path transform="translate(195,525)" d="m0 0 1 3-8 8-15 11-17 8-15 4-13 2-98 7-4-6v-3l8-4 31-1 11-1 8-1 35-2 17-2 19-5 13-5 17-9 2-2 5-1h2z" fill="#3F884D"/>
<path transform="translate(692,284)" d="m0 0 2 4h2v-3l40-1v8l5-1 11 26-1 3-7 1h-16l-9-20-2-4v-3h-2l-1 14-2 13-1 1-23 1 1-17 2-14z" fill="#D8D7E4"/>
<path transform="translate(485,117)" d="m0 0h7l5 4 2 4v74h-22v-73l3-6z" fill="#E55C00"/>
<path transform="translate(635,653)" d="m0 0h1v17l-5 18-9 17-7 11-10 13h-2l-2 4-11 12-15 15-9 7-1 2h47v1h-75l5-4 16-13 11-9 15-14 15-15 9-11 11-15 9-16 6-16z" fill="#4C2798"/>
<path transform="translate(612,769)" d="m0 0h20l-2 1v2h-2v2h-2v2l-8 7-53 53-1 2h-2v2h-2v2h-2v2h-2v2h-2v2h-2l-2 4h-2l-2 4h-21l6-7 3-3h2v-2l21-21 6-5 7-8 18-18 7-6 4-5 9-9h4z" fill="#985FE4"/>
<path transform="translate(652,238)" d="m0 0h21l3 29v21l-1-3h-18l-1 3h-5l-1-3-18 1 1-8 12-35 2-4z" fill="#FAF9FC"/>
<path transform="translate(555,284)" d="m0 0 3 3 2 1 1-2 5 7v14l-4 9-8 8-8 3h-20l-8-4-5-6-1-3v-10l1-4h23l1 9h3l2-7-2-5-10-8 2-1v-3z" fill="#D8D7E4"/>
<path transform="translate(293,117)" d="m0 0h6l6 4 3 5v7l-4 6-4 4v5l6 7 1 2v42h-22v-42l4-6 4-5-3-5-5-6-1-2v-8l5-6z" fill="#E55C01"/>
<path transform="translate(864,548)" d="m0 0h8l9 1 55 3 8 1 17 1 24 1 3 1 1 3 2-1-1 5-3 3-2 1-21-1-60-4-49-3-11-2 4-2 3-3z" fill="#40894D"/>
<path transform="translate(403,412)" d="m0 0h1l2 19v21l-4 12-7 12-11 12-5 4h-4l-11-23 1-3 12-9 5-5h2l2-4 7-9 6-12z" fill="#147349"/>
<path transform="translate(293,398)" d="m0 0h12l9 4 7 8 1 4v9l-3 8-6 7-7 5-8 2-13-1 2-14 5-25z" fill="#157449"/>
<path transform="translate(58,324)" d="m0 0h12l27 2 3 2-51 51-1 5h-2l1-8 9-43z" fill="#88DD80"/>
<path transform="translate(490,394)" d="m0 0h12l2 5 9 44v4h-30v-8z" fill="#157449"/>
<path transform="translate(336,238)" d="m0 0h14l9 1v9l-6 38-2 3v-4h-19v3h-2v-12l5-37z" fill="#FAF9FC"/>
<path transform="translate(393,240)" d="m0 0h22l1 1v9l-4 34h-2v4h-2v-3h-16l-3-1-1 8-1-4 2-25 3-22z" fill="#FAF8FC"/>
<path transform="translate(977,455)" d="m0 0 3 1-7 7h-2l-2 4-62 62 1 2-24-1v-1h8l2-4 38-38 1-3 11-7 13-9z" fill="#87DC80"/>
<path transform="translate(88,443)" d="m0 0h12l7 4 4 5 1 3v12l-5 10-8 6-4 2-16 1 2-14 5-24z" fill="#157249"/>
<path transform="translate(203,368)" d="m0 0h1l2 8 6 21 1 5v11l-3 10-4 8-5 6-2-3-6-8-13-8-2-1 2-4 9-8 6-8 6-14z" fill="#147349"/>
<path transform="translate(467,285)" d="m0 0h27l6 18v5l-8-1-13-3-5 1-11 7-10 7-11 8-1-2 12-20 8-13 3-6z" fill="#D8D6E4"/>
<path transform="translate(632,769)" d="m0 0h9l-2 4-83 83h-10l2-4 4-4h2v-2h2v-2h2v-2h2v-2h2v-2h2l2-4 10-10h2l2-4 40-40h2l2-4h2v-2h2v-2h2v-2z" fill="#B986EB"/>
<path transform="translate(588,283)" d="m0 0h1l1 5h2v-3h16v3h3v8l-4 26-2 3h-22l-1-5 5-31z" fill="#D8D7E4"/>
<path transform="translate(191,470)" d="m0 0 5 2v2l2 1-8 16-9 10-10 9-13 8-10 5-9 3h-3l2-4h2v-2h2v-2l5-4 21-21 11-12 8-7z" fill="#4FC572"/>
<path transform="translate(640,550)" d="m0 0 54 1 9 6 2-1-1 4-3 2h-35l-35-1-1-6z" fill="#40894D"/>
<path transform="translate(566,541)" d="m0 0h16l8 3 4 2 2 2h2l-1 3-2 1-65 1-1-2v-6l2 2 1-2 7-3z" fill="#3F884D"/>
<path transform="translate(103,376)" d="m0 0h11l5 3 3 5 1 8-4 10-8 6-2 1h-12l1-10z" fill="#157449"/>
<path transform="translate(258,552)" d="m0 0h9l5 2v2h3l-1 3-7 4-16 2-15 1h-24l-1-1v-5l9-5 23-1z" fill="#3F884D"/>
<path transform="translate(422,542)" d="m0 0h39l5 2 6 3-1 4-4 2h-60v-5l8-3z" fill="#40894D"/>
<path transform="translate(754,553)" d="m0 0 19 1 26 1 5 3 1 2-1 3h2v2l-3 1h-19l-32-1-5-1-4-7v-2z" fill="#3F884D"/>
<path transform="translate(980,455)" d="m0 0 7 1-1 2h-2l-2 4-69 69-8-1 70-70z" fill="#7CE4A9"/>
<path transform="translate(40,454)" d="m0 0 1 2 11-1v3l-7 8-14 14-6 24-2 10-4 21 1 2-6 1 2-13 6-29 3-17 4-19 5-3z" fill="#7DE3A4"/>
<path transform="translate(338,551)" d="m0 0h39l11 5v3l4-1 1-2-1 4-2 1-18 1h-41l-1-7z" fill="#3F884D"/>
<path transform="translate(1,545)" d="m0 0 3 3 15 28 6 4h18l74-5 25-3 16-4 11-5 10-5 11-8 3 1v2l-7 4-12 8-20 8-19 4-36 3-58 4h-15l-6-3-6-9-13-25z" fill="#3252A9"/>
<path transform="translate(312,240)" d="m0 0 5 5 4 40 3 37v6h-16l-7-1-5-3v-2h11l11 1-4-54-2-19z" fill="#284EA4"/>
<path transform="translate(529,685)" d="m0 0h11l4 6-4 5h-2l-2 4-8 8-1-2h-22v-3l15-15 5-2z" fill="#A24CDF"/>
<path transform="translate(1e3 563)" d="m0 0 1 2-6 11-7 6-8 2-48-3-95-6-7-3-4-5 1-3 4 5 5 2 31 2 91 6 15 1h8l9-3 5-5 1-4h2z" fill="#3352A9"/>
<path transform="translate(484,553)" d="m0 0 1 3-4 6-7 6-8 2h-64l-1 3-7 4-4 1-26 1h-37l-5-3-3-4 1-3 4 5 8 2 44-1 15-1 9-4 3-3 63-1 10-3 5-5z" fill="#2B4FA5"/>
<path transform="translate(696,240)" d="m0 0h2l-2 20-4 32-4 31 9-1h13l-5 5-9 1h-13l1-16 8-62 2-6z" fill="#284EA4"/>
<path transform="translate(380,504)" d="m0 0 3 3 7 16-1 6-3 2h-30l23-23z" fill="#7BE3A8"/>
<path transform="translate(594,499)" d="m0 0 3 1 5 12v6l-2 3-3 1h-29v-1l6-1 6-7z" fill="#83DB7F"/>
<path transform="translate(386,371)" d="m0 0 2 1 1 15 1 9-26 14h-3l11-17 9-14z" fill="#167449"/>
<path transform="translate(591,488)" d="m0 0h2l3 8-1 4-7 6-13 13 1 2-16 1 2-4 28-28z" fill="#7CE3A8"/>
<path transform="translate(438,449)" d="m0 0 9 3-6 7-12 12-7 8-7 6-3 3 1-11 2-7 5-3z" fill="#7CE3A8"/>
<path transform="translate(475,303)" d="m0 0 9 1 16 4 1-4v9h-7l-17-4-22 15-12 8-2-1-1-6h3l13-9 16-11z" fill="#284DA3"/>
<path transform="translate(636,444)" d="m0 0 9 1 2 2-30 30-2-1-2-6v-4l8-7 9-9h2l2-4z" fill="#7CE3A8"/>
<path transform="translate(379,303)" d="m0 0 4 5 1 6-1 7-2-1-1 9-7 1-33-1-10-1-3-4 1-1 48 1 2-18z" fill="#274DA3"/>
<path transform="translate(760,323)" d="m0 0 1 3-5 6-9 6-7 1h-22l-5-3-6 4-15 1h-15l-16 1h-11l-7-4v-2l4 1 3 1h17l14-1h15l12-1 6-4 4 3h26l8-4 7-6z" fill="#3352A9"/>
<path transform="translate(563,444)" d="m0 0 4 2-5 7-8 7-7 7-7 8-15 15-1 2h-2l-1-7 34-34h2l2-4z" fill="#7CE3A8"/>
<path transform="translate(494,506)" d="m0 0h12l9 3 5 3 1 4-23 1-19-1 2-4 6-4z" fill="#428A4E"/>
<path transform="translate(436,304)" d="m0 0 2 4-1 13-2 9-1 1-48-1-2-2v-3h49z" fill="#284EA4"/>
<path transform="translate(715,294)" d="m0 0h2l5 12 6 13v2l22-1-5 5-5 1h-18l-9-18z" fill="#284EA4"/>
<path transform="translate(491,428)" d="m0 0h12l4 18-3 1h-16l1-10z" fill="#1A1943"/>
<path transform="translate(716,564)" d="m0 0 1 3-6 8-9 4h-30l-42-1-8-3-4-6 1-3 3 5 7 3 35 1h39l8-4 4-5z" fill="#3352A9"/>
<path transform="translate(723,549)" d="m0 0 3 3 11 21 6 4 13 1 28 1h20l10-4 5-7 1 3-5 7-7 4-4 1h-17l-44-2-6-4-10-18-4-8z" fill="#3553AA"/>
<path transform="translate(284,308)" d="m0 0h9l1 5-3 2-4 11-2 1-22-1-7-2-4-4h28z" fill="#284EA4"/>
<path transform="translate(359,241)" d="m0 0 3 4 1 2-1 15-4 35-1 3h-5l2-19 3-29z" fill="#284EA4"/>
<path transform="translate(609,556)" d="m0 0 1 2-5 7-10 4h-71l-5-4-2-4 1-3 4 6 6 2 67-1 10-4z" fill="#2C4FA6"/>
<path transform="translate(290,556)" d="m0 0 1 3-5 9-7 7-8 4-10 2-30 2h-19l-9-3-4-6 1-2 4 5 6 2h26l26-2 12-3 6-4 5-5z" fill="#3854AB"/>
<path transform="translate(28,480)" d="m0 0h2l-1 7-5 23-5 25 1 2-6 1 2-13 6-29 2-13 3-1z" fill="#84DA7E"/>
<path transform="translate(403,567)" d="m0 0m-1 1 1 2-5 5-8 3-26 1h-37l-5-3-3-4 1-3 4 5 8 2 44-1 15-1 9-4z" fill="#3151A8"/>
<path transform="translate(517,273)" d="m0 0 3 3 3 6 10 9 8 6 2 7-2 5-3 2-2-2v-9h-23v-1l20-1-12-11-3-5z" fill="#284DA4"/>
<path transform="translate(512,314)" d="m0 0 3 4 4 5 7 3h20l9-4 5-3-1 4-7 6-10 3h-15l-8-3-5-6-2-3z" fill="#284EA4"/>
<path transform="translate(298,506)" d="m0 0h7l7 3 4 6 2 1 1 4h-4l-1-3-27-1 1-4 7-5z" fill="#41894D"/>
<path transform="translate(646,310)" d="m0 0h10l1 13 23-1v2l-5 4-11 1h-11l-1-1v-12h-7z" fill="#284EA4"/>
<path transform="translate(354,339)" d="m0 0h30l32 1 15 1v3l-55-1h-24l-2-2z" fill="#2D4DA4"/>
<path transform="translate(544,256)" d="m0 0h2l1 2v9l22 1-1 6h-21l-6-6v-7z" fill="#284EA4"/>
<path transform="translate(386,515)" d="m0 0 2 3 2 5-1 6-3 2h-16l3-5 10-10z" fill="#86DC7F"/>
<path transform="translate(416,243)" d="m0 0 2 3 1 5-6 51h-4l6-52z" fill="#284EA4"/>
<path transform="translate(574,253)" d="m0 0h1l1 5h15l-1 20-1 5h-1v-18h-14l-1-2z" fill="#284EA4"/>
<path transform="translate(478,319)" d="m0 0 14 3 11 1 2 3-1 3-1-2-15-2-10-2-18 12-2-2 11-8z" fill="#2D50A6"/>
<path transform="translate(184,488)" d="m0 0 4 1 2-1-1 4-7 8-7 7-15 10-5 3h-3v-4l8-1v-2l7-3 1-2 3-1 2-6 7-1v-3l3-3v-5z" fill="#82DA7E"/>
<path transform="translate(581,320)" d="m0 0 2 4 22 1-2 5-22 1-1-3z" fill="#294CA3"/>
<path transform="translate(617,322)" d="m0 0 1 3 10-1h13l-3 5-10 1h-12v-6z" fill="#284DA3"/>
<path transform="translate(721,251)" d="m0 0 4 2 2 3v7l-4 8-5 2 1-11z" fill="#274698"/>
<path transform="translate(301,433)" d="m0 0h13v4l-8 6-7 1 1-9z" fill="#1A2043"/>
<path transform="translate(628,254)" d="m0 0h4l-2 5-1 2-4 1h-9v-7z" fill="#284EA4"/>
<path transform="translate(947,460)" d="m0 0 1 4-6 13 1 2-12 7 2-5z" fill="#1A7649"/>
<path transform="translate(507,270)" d="m0 0h1v7l-8 10-3 2-2 3-1-7 11-11z" fill="#284EA4"/>
<path transform="translate(125,461)" d="m0 0 3 1-2 4-6 7-5 3 1-8 2-5z" fill="#4EC572"/>
<path transform="translate(772,372)" d="m0 0h2l-1 9-5 29-2-2 2-20 2-7z" fill="#1C774A"/>
<path transform="translate(544,256)" d="m0 0h2l1 2-1 14h-2l-3-4v-7z" fill="#284DA3"/>
<path transform="translate(490,531)" d="m0 0h20l1 5-1-2h-20l-1 2z" fill="#545EB9"/>
<path transform="translate(571,320)" d="m0 0 1 3-7 11-11 8-4 1-1-3 10-5 5-4z" fill="#3955AC"/>
<path transform="translate(478,319)" d="m0 0m-1 1m-2 1 3 1-5 4-13 9-2-2 11-8z" fill="#3351A8"/>
<path transform="translate(938,481)" d="m0 0m-2 1 2 1-5 4v-3z" fill="#86DC82"/>
<path transform="translate(376,661)" d="m0 0 7 1v2l2 2-12 2 1-6z" fill="#AD58E0"/>
<path transform="translate(588,256)" d="m0 0 5 1-1 15h-2v-8l1-6-15 1v-1z" fill="#C9B1E7"/>
<path transform="translate(449,280)" d="m0 0 4 5 5 7 5-3-2 4-2 3-3-1-7-12z" fill="#2B4FA5"/>
<path transform="translate(165,511)" d="m0 0 2 1-12 8h-3v-4l8-1v-2z" fill="#86DC7F"/>
<path transform="translate(536,301)" d="m0 0 4 2 1 6-3 2-2-2z" fill="#1C1947"/>
<path transform="translate(292,282)" d="m0 0h1v12l-4 1-1-2 3-10z" fill="#284EA4"/>
<path transform="translate(977,455)" d="m0 0 3 1-7 7h-3l1-4z" fill="#86DD83"/>
<path transform="translate(241,324)" d="m0 0 7 6 5 5h-3l-8-6z" fill="#3150A7"/>
<path transform="translate(653,285)" d="m0 0 2 3v8l-5 1z" fill="#284EA4"/>
<path transform="translate(297,530)" d="m0 0h8l1 4h-10z" fill="#3151A8"/>
<path transform="translate(542,264)" d="m0 0 4 1v7h-2l-3-4z" fill="#1C1B49"/>
<path transform="translate(805,191)" d="m0 0 4 2 3-2 1 5-2 2v-3l-3 1-2-1-1 3z" fill="#E0772D"/>
<path transform="translate(456,285)" d="m0 0h7l-2 5-2 2-3-5z" fill="#DBDCE4"/>
<path transform="translate(760,323)" d="m0 0 1 3-5 6-5 3 2-4z" fill="#3E56AE"/>
<path transform="translate(798,190)" d="m0 0h5l-1 8h-2v-6h-2z" fill="#BF9034"/>
</svg>
