<?xml version="1.0" encoding="UTF-8"?>
<svg version="1.1" viewBox="0 0 2048 798" width="1280" height="1280" xmlns="http://www.w3.org/2000/svg">
<path transform="translate(586,305)" d="m0 0h3l1 129-2-1-12-34v-4h-2l-2 9-16 49-6 19 39-3 1 14-1 1-39 3-5 1-11 35v7l3 5 7 4 17 4 2 1v5l-7 2-83 8-64 9h-8l-1-4 1-3 13-5 4-4 1-2 1-186h-2l-2 12-17 71-23 100-5 21-5 6-4 1h-8l-4-5-15-52-25-90-13-48-2-1 1 178 4 10 7 6 12 3 2 2v5l-3 2-56 12-7 1v-8l10-7 3-1 7-14 2-8v-215l-3-12-7-8-11-5v-7l1-1h68l3 5 29 106 15 53 1 3 4-15 22-95 12-50 3-6 1-1h73v6l-6 2-10 3-3 3-1 3v214l1 4 5 1h13l10-6 6-5 7-11 12-36 19-58 14-43 27-81z"/>
<path transform="translate(1813,305)" d="m0 0h14l25 2 32 5 6 1h13l14-1 2 6 4 44 4 32v6l-4 2-4-1-12-24-8-11-9-10-14-11-13-8-17-8-16-4h-20l-15 3-10 4-8 6-5 8-2 6v16l4 10 9 10 9 7 14 8 21 10 27 11 16 8 14 8 13 10 10 9 10 10 10 14 8 15 6 18 3 15 1 9v20l-3 18-5 13-6 11-11 12-14 9-12 5-18 4-9 1h-27l-24-3-25-6-33-11-18-8-14-9-3-6v-86l6-2 2 1 6 19 7 17 9 15 9 12 11 12 11 10 10 7 15 8 9 3 5 1h23l11-3 8-4 5-4 5-8 3-11v-10l-3-12-7-14-8-10-5-6-11-9-14-10-34-18-18-11-14-10-13-12-10-11-8-14-5-13-3-14v-29l4-17 8-16 9-10 10-9 17-9 17-5 12-2z"/>
<path transform="translate(135,306)" d="m0 0h30l28 4 13 3h17l10-1 2 5 7 47 5 27-1 5-6 1-7-15-9-14-9-11-7-7-15-11-16-8-12-4-6-1h-17l-17 3-12 5-9 7-6 10-2 6v17l4 9 6 8 14 10 17 8 20 7 27 9 21 10 13 9 10 9 9 9 8 13 7 16 4 19 1 21-2 18-4 15-6 14-8 12-11 12-13 10-19 10-24 8-20 4-34 4-14 1h-22l-15-2-13-4-6-4-3-8-10-54-7-30-3-13 3-3 4-1 3 3 11 20 12 17 9 10 7 8 13 11 15 10 15 7 14 4h20l15-4 16-8 7-6 6-9 4-10 1-5v-12l-4-13-7-11-10-10-15-10-18-8-27-10-20-9-16-10-10-8-10-10-9-14-5-12-3-14-1-10v-12l3-21 6-16 6-11 8-10 7-7 10-7 15-8 15-5 14-3z"/>
<path transform="translate(962,598)" d="m0 0h69l72 1 63 2 84 4 61 4 84 7 75 8 79 10 66 10 59 10 62 12 63 14 64 16 53 15 44 14-4 1-56-14-55-12-56-11-69-12-67-10-61-8-80-9-75-7-79-6-83-5-68-3-64-2-51-1h-191l-81 2-78 3-91 5-81 6-66 6-76 8-79 10-73 11-53 9-63 12-56 12-54 13-11 3-4-1 58-18 55-15 61-15 51-11 56-11 70-12 68-10 71-9 76-8 70-6 74-5 58-3 89-3z"/>
<path transform="translate(1278,311)" d="m0 0h121l15 3 13 5 11 7 9 10 6 13 2 8v25l-4 16-5 10-7 8-10 6-6 3h-3l5 12 12 24 14 24 13 23 14 23 10 13 8 6 11 4-1 5-3 1h-22l-19-3-16-5-11-6-11-9-8-11-16-29-14-26-15-30-5-6-7-3-5-1 1 96 2 6 10 4 9 3v5l-1 1-26-1-66-4-6-2v-5l2-1 15-2 4-2 1-2v-201l-4-4-17-4-1-5zm83 11-7 1v81l2 6 4 4 7 2h13l10-5 7-9 4-10 3-16v-16l-4-16-6-10-9-8-7-3-5-1z"/>
<path transform="translate(1106,311)" d="m0 0h114l17 4 14 7 8 7 6 9 5 12 1 5v23l-3 12-6 12-8 9-8 5-10 3 15 5 11 7 10 10 7 12 4 13 1 8v10l-2 14-4 12-6 9-7 7-14 7-13 3-9 1h-18l-105-5-1-4 2-3 16-3 3-4v-192l-2-4-10-3-8-2-1-5zm72 11v90l7 1h18l7-4 6-7 5-12 2-9 1-15-2-15-5-13-7-9-10-6-3-1zm0 103v89l8 6 9 3h14l8-3 7-5 5-8 3-9 1-6v-27l-4-14-7-11-8-7-13-6-12-2z"/>
<path transform="translate(853,311)" d="m0 0h89v6l-15 4-4 4-1 85h53v-83l-2-5-8-3-9-2-1-4 1-2h89v6l-9 2-9 3-2 3v189l2 6 9 3 9 2 1 1v5l-7 1-83-2v-6l15-4 3-2 1-5v-88h-53l1 91 4 4 15 4v6l-47 1h-42l-1-5 3-2 14-3 3-1 1-6v-188l-2-4-10-3-7-1-2-5z"/>
<path transform="translate(1377,22)" d="m0 0h27l15 3 12 5 10 8 6 8 4 8 3 11 1 7v22l-3 16-4 11-7 10-5 6-12 9-2 1 3 10 14 34 8 18v1h-58l-12-29-9-21-7-6-9-3h-8l-1 59h-56l-1-158-3-6-1-1-13-1-2-2 1-5 7-2 93-12zm-27 15-7 2v88l4 5 7 3h16l10-4 9-8 5-8 5-15 2-17-1-15-4-11-6-9-10-7-13-4z"/>
<path transform="translate(758,306)" d="m0 0h18l21 3 20 5h20l2 2 6 41 3 17v6l-5 1-10-19-8-11-9-10-13-10-14-7-8-2h-18l-14 3-8 4-7 8-2 6v11l4 9 5 6 10 7 16 8 20 8 17 7 16 9 10 8 10 10 7 11 5 12 2 9v25l-3 12-7 14-10 11-14 9-16 6-14 3-25 2-26-2-18-4-21-7-4-3-3-17-7-38-1-10 6-1 10 19 8 11 9 10 8 8 10 7 16 8 7 2h18l11-3 10-5 6-7 3-9v-10l-3-9-8-11-13-10-15-8-23-10-18-10-11-9-8-8-7-11-5-13-2-13v-13l3-16 8-16 9-10 11-7 12-5 13-3z"/>
<path transform="translate(931,41)" d="m0 0h91l21 2 16 5 14 7 12 11 7 11 4 12 1 6v16l-3 16-7 16-7 9-4 5-12 9-12 6-16 4h-22l-14-3-1 37h-55l-1-1v-145l-3-9-8-4-12-2v-7zm68 11v103l9 3h7l10-4 8-6 6-9 4-12 2-13v-18l-3-15-4-9-4-6-9-8-10-4-11-2z"/>
<path transform="translate(1583,319)" d="m0 0h25l17 3 18 6 19 10 14 11 13 13 10 14 8 15 6 18 3 14 1 10v13l-2 17-1 1h-134v-144z"/>
<path transform="translate(1212,37)" d="m0 0h35l2 6 5 43v11l-4 1-4-8-8-18-7-10-5-4-8-4-12-3h-22l-18 1v87l23-3 8-4 7-8 6-12 6-19h6v96h-6l-7-20-6-10-5-5-6-3-4-1h-22l-1 60h-54l-1-149-3-7-7-3-12-1-3-3 1-5 2-1z"/>
<path transform="translate(595,306)" d="m0 0 4 2 6 14 19 50 19 49 19 48 20 50 4 6 8 4 13 3v6l-4 1-99 7-1-1v-5l7-3 11-4-1-8-14-41-11-1v-13l1-1h5l-6-17z"/>
<path transform="translate(717,36)" d="m0 0h19l62 2 19 1 1 1v6l-16 3-5 5-1 2v133l3 13 3 8h-59l-3-16-1-32v-102l-2-9-5-4-5-2-9-1-2-2v-5z"/>
<path transform="translate(595,82)" d="m0 0h2l5 5 15 10 23 11 16 7 16 9 11 9 11 11 9 14 5 11 4 15 1 7v17l-1 2h-41l-5-12-7-9-7-7-15-10-29-15-13-8z"/>
<path transform="translate(1580,488)" d="m0 0h127l-8 16-7 10-12 14-12 10-16 10-19 8-17 4-7 1h-28l-1-1z"/>
<path transform="translate(1017,705)" d="m0 0h28l16 28 10 17 4-5 13-21 12-19h33l-2 4-1 1v59l1 6h-33l2-9v-20l-16 27-2 2h-24l1-6-14-25-1 1v15l2 15h-25l3-14v-47l-1-3-4-2z"/>
<path transform="translate(1111,214)" d="m0 0h54l1 4 1 26 5 5 3 1h34l11-4 9-7 8-8 9-14 2-3h11v7l-6 39-2 4h-164l-2-3 1-4 1-1 16-3 6-5 1-4z"/>
<path transform="translate(745,214)" d="m0 0h60l5 7 9 6 10 3h13l13-4 9-8 3-4h22l-3 11-8 15-11 11-12 7-13 4-15 2h-14l-19-3-13-5-11-6-12-11-7-10-6-13z"/>
<path transform="translate(587,17)" d="m0 0h2v28l-3 9v9l3 9 1 72-4-1-12-9-14-14-9-14-5-12-3-15v-19l4-14 6-9 5-6 10-7 12-5z"/>
<path transform="translate(305,705)" d="m0 0h37v55l1 1 32 1v-57h27v70h-69l-10-4-7-8-3-9-1-41-7-7z"/>
<path transform="translate(1518,346)" d="m0 0h1v118h-43l-2-11v-26l4-20 6-17 8-15 9-12 11-12z"/>
<path transform="translate(852,40)" d="m0 0h19l31 1 13 1 1 5-1 2-16 3-5 5-1 3-1 137-2 13h-21l2-11 1-7v-134l-3-5-4-3-12-2-2-2z"/>
<path transform="translate(1594,705)" d="m0 0h82l-6 11-5 7-4-5-1-1-30-1v17h32l5 10h-37v19h39l5 8 2 5h-77l2-8 1-17v-36l-8-8z"/>
<path transform="translate(944,214)" d="m0 0h55l1 32 2 4 8 4 12 2 1 5-1 2-8 1h-91l-3-1v-7l15-3 6-4 2-8v-26z"/>
<path transform="translate(671,214)" d="m0 0h40l-2 9-6 11-9 10-8 7-15 8-16 5-18 3h-39l-3-1v-33l6 1 14 5 17 3h9l10-2 10-5 5-5 4-9z"/>
<path transform="translate(1391,214)" d="m0 0h58l12 24 8 9 10 6 18 5v5l-2 2-34 1-22-1-11-3-12-6-8-7-7-10-5-10-5-13z"/>
<path transform="translate(1287,214)" d="m0 0h56l1 31 3 6 7 3 8 1 2 2-1 6h-95l-1-1v-5l15-5 3-4 1-3z"/>
<path transform="translate(1256,705)" d="m0 0h29l15 26 14 24 8 13 4 5v2h-33l-5-13-3-6v-2h-36l-9 16-3 5h-17l2-4 10-13 27-45-1-4zm10 18-11 19v1h23l-10-20z"/>
<path transform="translate(604,15)" d="m0 0h11l19 2 23 6 18 6 8 3 17 1 2 5 6 47 2 14-5 1-7-15-9-14-11-13-11-9-11-7-13-6-12-3-16-1-11 2-8 3v-21z"/>
<path transform="translate(1415,705)" d="m0 0h79l-2 6-6 9-2-1-21-1v43l1 14h-33l3-11 1-46h-28l6-11z"/>
<path transform="translate(686,705)" d="m0 0h79l-2 5-6 10h-2v-2h-22l1 47 1 10h-33l3-13 1-44h-28l2-5z"/>
<path transform="translate(513,705)" d="m0 0h37v56l35 1 6 11v2h-73l2-9v-53l-7-7z"/>
<path transform="translate(536,214)" d="m0 0h34l14 11 5 3v38l-21-3-16-4-6-4-3-5-7-34z"/>
<path transform="translate(867,705)" d="m0 0h37v64l1 6h-34l3-10v-52l-7-7z"/>
<path transform="translate(1975,597)" d="m0 0h10l8 4 6 7 2 5v10l-4 8-6 5-8 3-10-1-8-5-4-5-2-6v-9l4-8 7-6z"/>
<path transform="translate(1989,314)" d="m0 0h12l7 21v4h2l1-5 7-20h12v39h-9l-1-16-6 16h-9l-4-10-2-6-1 16h-9z"/>
<path transform="translate(1484,488)" d="m0 0h35v46l-4-2-12-12-9-12-8-14z"/>
<path transform="translate(526,163)" d="m0 0h5l13 21 11 14 10 11v1h-30l-8-31-3-10v-5z"/>
<path transform="translate(1948,314)" d="m0 0h34v8h-13v31h-9v-31l-10 1-2-1z"/>
<path transform="translate(1257,195)" d="m0 0 5 1v7l-2 7h-10l6-13z"/>
<path transform="translate(30,727)" d="m0 0 2 1z"/>
<path transform="translate(1960,726)" d="m0 0 2 1z"/>
<path transform="translate(33,726)" d="m0 0 2 1z"/>
</svg>
